<svg width="16" height="16" viewBox="0 0 17 17" fill="none" xmlns="http://www.w3.org/2000/svg">
<path d="M16.1156 0.378125C15.6281 -0.109375 14.8406 -0.109375 14.3531 0.378125L8.24063 6.47813L2.12813 0.365625C1.64063 -0.121875 0.853125 -0.121875 0.365625 0.365625C-0.121875 0.853125 -0.121875 1.64063 0.365625 2.12813L6.47813 8.24063L0.365625 14.3531C-0.121875 14.8406 -0.121875 15.6281 0.365625 16.1156C0.853125 16.6031 1.64063 16.6031 2.12813 16.1156L8.24063 10.0031L14.3531 16.1156C14.8406 16.6031 15.6281 16.6031 16.1156 16.1156C16.6031 15.6281 16.6031 14.8406 16.1156 14.3531L10.0031 8.24063L16.1156 2.12813C16.5906 1.65313 16.5906 0.853125 16.1156 0.378125Z" fill="white"/>
</svg>
