<svg width="23" height="24" viewBox="0 0 23 24" fill="none" xmlns="http://www.w3.org/2000/svg">
<path d="M21.8001 10.4L2.45006 0.725001C2.18902 0.604058 1.90187 0.550325 1.61476 0.568694C1.32765 0.587063 1.04969 0.676951 0.806191 0.830174C0.56269 0.983398 0.361379 1.19509 0.220583 1.44598C0.0797874 1.69687 0.00397899 1.979 5.85094e-05 2.26667V21.6083C-0.0023793 21.9036 0.0714 22.1946 0.214266 22.453C0.357131 22.7115 0.564252 22.9287 0.815608 23.0837C1.06696 23.2387 1.35405 23.3262 1.64913 23.3378C1.94421 23.3495 2.23729 23.2848 2.50006 23.15L21.8001 13.475C22.086 13.3315 22.3263 13.1113 22.4943 12.8391C22.6622 12.5668 22.7512 12.2532 22.7512 11.9333C22.7512 11.6134 22.6622 11.2999 22.4943 11.0276C22.3263 10.7554 22.086 10.5352 21.8001 10.3917V10.4Z" fill="white"/>
</svg>
